<?xml version="1.0" standalone="no"?><!DOCTYPE svg PUBLIC "-//W3C//DTD SVG 1.1//EN" "http://www.w3.org/Graphics/SVG/1.1/DTD/svg11.dtd"><svg t="1577215809795" class="icon" viewBox="0 0 1024 1024" version="1.1" xmlns="http://www.w3.org/2000/svg" p-id="5740" xmlns:xlink="http://www.w3.org/1999/xlink" width="200" height="200"><defs><style type="text/css"></style></defs><path d="M273.422811 158.358681l25.201985 0 0-6.311753c0.121773-9.779737-2.328022-17.475-7.346315-23.072485-5.033643-5.611811-13.368472-8.470929-25.018813-8.578376-13.323447-0.228197-22.662139 3.650133-28.015054 11.634991-5.338588 8.000208-7.924483 21.445428-7.710612 40.349987-0.106424 12.380982 0.805342 22.404266 2.75167 30.05348 1.933025 7.650237 5.506411 13.246699 10.691503 16.744359 5.186116 3.514033 12.624529 5.247514 22.282492 5.201465 5.65786 0.092098 10.996448-0.836041 15.985066-2.783393 5.003967-1.946328 9.079796-5.445012 12.213159-10.509355 3.148713-5.050016 4.77577-12.213159 4.882194-21.460778l0-7.437389-25.215288 0c0.074701 9.307993-0.426719 15.771195-1.520633 19.376303-1.080611 3.604084-3.194762 5.323239-6.342452 5.17179-2.631944 0.075725-4.578272-0.898463-5.841032-2.905166-1.277086-1.992377-2.098801-5.505387-2.478448-10.524704-0.379647-5.003967-0.562818-11.984962-0.51677-20.927635-0.046049-8.942673 0.137123-15.924691 0.51677-20.927635 0.379647-5.018294 1.202385-8.516977 2.478448-10.523681 1.26276-2.007727 3.209088-2.965541 5.841032-2.889817 2.509147-0.106424 4.333702 0.928139 5.474688 3.102664 1.140986 2.159176 1.703805 6.037507 1.688455 11.618619L273.424858 158.358681 273.422811 158.358681zM372.15958 151.210887c0.062422-10.661827-2.493797-18.479887-7.679913-23.453155-5.186116-4.957919-13.414521-7.42204-24.700565-7.360641-10.995425 0.030699-19.208481 2.723018-24.63712 8.046257-5.446036 5.338588-8.153704 13.06455-8.153704 23.193235 0.213871 8.66945 2.343371 15.102976 6.40385 19.285229 4.046153 4.182252 8.729825 7.284917 14.068414 9.307993 5.323239 2.037403 10.023284 4.166903 14.069437 6.388501 4.045129 2.204202 6.17463 5.702885 6.40385 10.447956-0.030699 2.783393-0.76134 5.080715-2.220574 6.874571-1.460258 1.811252-3.52836 2.738367-6.205329 2.798742-2.570545 0.046049-4.624321-0.821715-6.175653-2.616594s-2.341325-4.805446-2.387373-9.018398l0-2.387373L305.726541 192.71721l0 3.497661c0.061398 10.251481 2.965541 17.536398 8.729825 21.85475 5.764284 4.334725 14.068414 6.433526 24.912389 6.311753 11.529591 0.046049 20.304442-2.433422 26.342971-7.42204 6.037507-5.003967 9.063423-12.806677 9.109472-23.407106-0.229221-8.942673-2.448772-15.604396-6.661723-19.954471-4.212952-4.349051-9.095145-7.572466-14.645558-9.701966-5.552459-2.114151-10.43363-4.288676-14.647605-6.53995-4.212952-2.251274-6.432503-5.749958-6.661723-10.495028-0.01535-2.325975 0.639566-4.349051 1.961678-6.098905 1.324158-1.733481 3.377934-2.64627 6.175653-2.721994 2.524496 0.075725 4.396123 1.139963 5.611811 3.178389 1.233084 2.052752 1.840928 4.578272 1.826602 7.619538l0 2.372024L372.15958 151.209864 372.15958 151.210887zM397.618415 222.419695l33.627888 0 21.582551-100.060927-27.741831 0L414.289096 197.765179l-10.510378-75.40641-27.739784 0L397.618415 222.419695 397.618415 222.419695zM592.722998 63.575967l0 244.941642 244.909919 0 0 651.906423L186.36606 960.424033 186.36606 63.575967 592.722998 63.575967 592.722998 63.575967zM230.518652 430.540733l0 485.747079 562.963719 0L793.482371 430.540733 230.518652 430.540733 230.518652 430.540733zM414.182672 524.562107l0 42.965557 87.467097 0 0-42.965557L414.182672 524.562107 414.182672 524.562107zM609.816305 567.528688l0-42.965557-87.451748 0 0 42.965557L609.816305 567.528688 609.816305 567.528688zM609.816305 631.209032l0-42.965557-87.451748 0L522.364557 631.209032 609.816305 631.209032 609.816305 631.209032zM609.816305 694.889377l0-42.964534-87.451748 0 0 42.964534L609.816305 694.889377 609.816305 694.889377zM609.816305 758.568698l0-42.964534-87.451748 0 0 42.964534L609.816305 758.568698 609.816305 758.568698zM609.816305 822.265416l0-42.980907-87.451748 0 0 42.980907L609.816305 822.265416 609.816305 822.265416zM717.983863 567.528688l0-42.965557-87.451748 0 0 42.965557L717.983863 567.528688 717.983863 567.528688zM717.983863 631.209032l0-42.965557-87.451748 0L630.532115 631.209032 717.983863 631.209032 717.983863 631.209032zM717.983863 694.889377l0-42.964534-87.451748 0 0 42.964534L717.983863 694.889377 717.983863 694.889377zM717.983863 758.568698l0-42.964534-87.451748 0 0 42.964534L717.983863 758.568698 717.983863 758.568698zM717.983863 822.265416l0-42.980907-87.451748 0 0 42.980907L717.983863 822.265416 717.983863 822.265416zM393.468908 567.528688l0-42.965557-87.453794 0 0 42.965557L393.468908 567.528688 393.468908 567.528688zM393.468908 631.209032l0-42.965557-87.453794 0L306.015114 631.209032 393.468908 631.209032 393.468908 631.209032zM393.468908 694.889377l0-42.964534-87.453794 0 0 42.964534L393.468908 694.889377 393.468908 694.889377zM393.468908 758.568698l0-42.964534-87.453794 0 0 42.964534L393.468908 758.568698 393.468908 758.568698zM501.649769 822.265416l0-42.980907-87.467097 0 0 42.980907L501.649769 822.265416 501.649769 822.265416zM393.468908 779.284509l-87.453794 0 0 42.980907 87.453794 0L393.468908 779.284509 393.468908 779.284509zM414.182672 715.604164l0 42.964534 87.467097 0 0-42.964534L414.182672 715.604164 414.182672 715.604164zM414.182672 651.92382l0 42.964534 87.467097 0 0-42.964534L414.182672 651.92382 414.182672 651.92382zM414.182672 588.243475 414.182672 631.209032l87.467097 0 0-42.965557L414.182672 588.243475 414.182672 588.243475zM738.69865 503.84732l0 339.116511-453.397301 0.016373L285.30135 503.84732 738.69865 503.84732 738.69865 503.84732zM621.055277 63.575967l216.57764 216.561267L621.055277 280.137235 621.055277 63.575967 621.055277 63.575967z" p-id="5741"></path></svg>