<?xml version="1.0" standalone="no"?><!DOCTYPE svg PUBLIC "-//W3C//DTD SVG 1.1//EN" "http://www.w3.org/Graphics/SVG/1.1/DTD/svg11.dtd"><svg t="1577215712611" class="icon" viewBox="0 0 1024 1024" version="1.1" xmlns="http://www.w3.org/2000/svg" p-id="5140" xmlns:xlink="http://www.w3.org/1999/xlink" width="200" height="200"><defs><style type="text/css"></style></defs><path d="M230.402 222.297h37.854c9.875-0.138 17.073-2.51 21.606-7.151 4.52-4.626 7.38-10.726 8.551-18.267 1.187-7.547 1.688-15.755 1.52-24.641 0.168-8.871-0.333-17.078-1.52-24.626-1.172-7.554-4.032-13.64-8.55-18.272-4.535-4.634-11.732-7.015-21.607-7.144h-37.854v100.1z m77.688-50.06c-0.165 18.556 2.467 31.908 7.898 40.056s14.713 12.133 27.859 11.967c13.147 0.166 22.428-3.82 27.861-11.967 5.432-8.148 8.064-21.5 7.88-40.055 0.184-18.548-2.449-31.892-7.88-40.046-5.433-8.149-14.714-12.135-27.861-11.96-13.146-0.176-22.427 3.811-27.859 11.96-5.431 8.154-8.063 21.498-7.898 40.046z m120.934-14.02h25.225v-6.307c0.107-9.79-2.342-17.481-7.362-23.096-5.038-5.614-13.375-8.475-25.03-8.582-13.328-0.229-22.67 3.651-28.027 11.648-5.342 7.995-7.927 21.446-7.714 40.358-0.106 12.392 0.806 22.412 2.752 30.074 1.933 7.66 5.509 13.244 10.697 16.751 5.204 3.508 12.63 5.242 22.291 5.197 5.66 0.09 11-0.837 15.99-2.786 5.007-1.947 9.086-5.447 12.233-10.506 3.135-5.058 4.763-12.217 4.855-21.476v-7.434H429.72c0.076 9.305-0.426 15.772-1.507 19.378s-3.21 5.332-6.359 5.174c-2.617 0.075-4.58-0.89-5.844-2.891-1.277-2.009-2.1-5.523-2.48-10.529-0.38-5.021-0.563-12.004-0.517-20.952-0.046-8.946 0.137-15.924 0.518-20.936 0.38-5.013 1.202-8.521 2.48-10.529 1.263-2.009 3.226-2.966 5.843-2.892 2.51-0.098 4.335 0.937 5.477 3.105 1.142 2.16 1.705 6.04 1.69 11.624v5.607h0.002z m163.732-94.83v245.05h245.012v652.176H186.231V63.388h406.525zM230.402 430.504V916.45h563.196V430.503H230.402z m26.065-289.533h5.186c3.317-0.121 5.813 0.578 7.441 2.084 1.643 1.514 2.708 4.534 3.224 9.054 0.517 4.52 0.761 11.23 0.716 20.13 0.045 8.917-0.199 15.626-0.716 20.146-0.516 4.519-1.581 7.53-3.224 9.045-1.629 1.514-4.124 2.214-7.441 2.092h-5.186V140.97z m78.54 31.268c-0.046-8.946 0.121-15.924 0.518-20.936 0.38-5.013 1.202-8.521 2.48-10.529 1.261-2.009 3.212-2.966 5.842-2.892 2.633-0.074 4.58 0.883 5.844 2.892 1.277 2.008 2.1 5.516 2.48 10.529 0.379 5.012 0.563 11.99 0.517 20.936 0.046 8.947-0.138 15.93-0.518 20.952-0.38 5.006-1.202 8.52-2.48 10.529-1.263 2.001-3.21 2.966-5.843 2.89-2.63 0.076-4.58-0.889-5.842-2.89-1.278-2.009-2.1-5.523-2.48-10.529-0.397-5.022-0.564-12.005-0.518-20.952z m403.785 522.738l-36.82 148.137h-47.745L637.154 757.1l-17.285 86.013h-47.732l-36.82-148.137h46.91l16.66 91.551 18.107-91.55h40.122l17.695 91.55 17.072-91.55h46.909z m-453.585-0.008l217.062 0.008v20.715H285.207v-20.723z m0-63.714h453.585v20.723H285.207v-20.723z m0-63.706h453.585v20.722H285.207v-20.722z m0-63.708h453.585v20.724H285.207V503.84z m0 254.843H502.27v20.723H285.207v-20.723z m0 63.706H502.27v20.723H285.207V822.39z m335.91-759.001l216.651 216.651H621.117V63.388z" p-id="5141"></path></svg>