<?xml version="1.0" standalone="no"?><!DOCTYPE svg PUBLIC "-//W3C//DTD SVG 1.1//EN" "http://www.w3.org/Graphics/SVG/1.1/DTD/svg11.dtd"><svg t="1577215797377" class="icon" viewBox="0 0 1024 1024" version="1.1" xmlns="http://www.w3.org/2000/svg" p-id="5620" xmlns:xlink="http://www.w3.org/1999/xlink" width="200" height="200"><defs><style type="text/css"></style></defs><path d="M267.789511 122.777301l0 72.38868c-0.034792 4.656043-0.665149 7.831362-1.89107 9.517771-1.227967 1.685385-2.841721 2.476401-4.839215 2.37714-1.998517 0.099261-3.609201-0.691755-4.836145-2.37714s-1.856277-4.861728-1.895163-9.517771l0-4.903683-23.503297 0 0 2.100848c-0.099261 10.470469 2.233877 18.466584 6.996344 23.984251 4.76656 5.51869 12.55699 8.299013 23.37743 8.339946 10.728342 0.12075 18.84623-2.396583 24.338315-7.55507 5.499248-5.160533 8.256034-13.69593 8.274454-25.610284l0-68.74571L267.789511 122.776278 267.789511 122.777301zM303.245024 222.728734l26.019607 0 0-38.084387 9.115612 0c10.611685-0.014326 18.717294-2.642177 24.300452-7.869225 5.590322-5.229095 8.408507-12.966313 8.455579-23.205515 0.037862-8.940626-2.279926-16.260335-6.965645-21.961174-4.688789-5.696746-11.972683-8.639774-21.871123-8.831132l-39.054481 0L303.245024 222.728734 303.245024 222.728734zM413.081595 186.046277l9.252735 0c-0.091074 8.534374-0.896416 14.231119-2.416026 17.076934-1.527796 2.843768-3.66139 4.161786-6.418176 3.938706-2.622734 0.079818-4.564969-0.884137-5.842055-2.885723-1.260713-2.001587-2.096754-5.508457-2.476401-10.512425-0.379647-5.007037-0.547469-11.975752-0.509606-20.905122-0.037862-8.936533 0.137123-15.903202 0.532119-20.913309 0.402159-5.006014 1.276063-8.511861 2.620687-10.512425 1.352811-2.00568 3.434216-2.966565 6.237051-2.89084 1.541099 0.008186 2.803859 0.38067 3.806699 1.121544 0.98749 0.73985 1.731434 1.814322 2.217505 3.219321 0.487094 1.337461 0.852414 2.974751 1.071402 4.924149 0.220011 1.943258 0.340761 4.181229 0.334621 6.706749l25.180496 0c-0.159636-11.998265-3.113921-20.626783-8.886391-25.880437-5.758144-5.260817-13.338796-7.831362-22.744004-7.713682-10.155291 0.019443-17.933441 2.028193-23.335475 6.028297-5.409197 3.994987-9.107425 9.852392-11.090593 17.566074-1.981121 7.717775-2.916423 17.163915-2.808976 28.345582-0.137123 11.04352 0.394996 20.429285 1.595334 28.151154s3.866051 13.608949 8.006348 17.661242c4.13211 4.049223 10.5421 6.088672 19.23304 6.118348 4.53427 0.083911 8.79634-0.641613 12.775978-2.183735 3.981684-1.543146 6.913457-4.406356 8.789177-8.588609l0.843204 8.81169 17.622356 0L446.672644 168.418804 413.081595 168.418804 413.081595 186.046277 413.081595 186.046277zM592.64011 64.058968l0 244.680698 244.635673 0 0 651.201365L186.72217 959.941032 186.72217 64.058968 592.64011 64.058968 592.64011 64.058968zM230.821551 430.625668l0 485.210867 562.359968 0 0-485.210867L230.821551 430.625668 230.821551 430.625668zM329.265654 141.521201l4.906753 0c3.304256-0.008186 5.812379 0.98749 7.520277 2.992147 1.702782 2.010797 2.568499 5.071506 2.575662 9.195429-0.00614 4.185322-0.87288 7.269567-2.575662 9.248641-1.706875 1.979074-4.214998 2.959402-7.520277 2.943029l-4.906753 0L329.265654 141.521201 329.265654 141.521201zM731.271494 520.507768l0 305.443597-438.548104 0L292.72339 520.507768 731.271494 520.507768 731.271494 520.507768zM714.363406 537.416879 309.632501 537.416879l0 271.624351L714.363406 809.04123 714.363406 537.416879 714.363406 537.416879zM333.80811 607.690386c0-17.259082 13.991666-31.267121 31.266098-31.267121 17.265222 0 31.266098 14.007015 31.266098 31.267121 0 17.273409-14.000875 31.273261-31.266098 31.273261C347.799776 638.962623 333.80811 624.963795 333.80811 607.690386L333.80811 607.690386zM560.387545 663.833057l30.382984-54.897308 99.420337 179.605587L333.80811 788.541337l99.41829-179.605587 30.385031 54.897308 48.387034-87.409792L560.387545 663.833057 560.387545 663.833057zM620.944759 64.058968l216.331024 216.327954L620.944759 280.386922 620.944759 64.058968 620.944759 64.058968z" p-id="5621"></path></svg>