<?xml version="1.0" standalone="no"?><!DOCTYPE svg PUBLIC "-//W3C//DTD SVG 1.1//EN" "http://www.w3.org/Graphics/SVG/1.1/DTD/svg11.dtd"><svg t="1577215743986" class="icon" viewBox="0 0 1024 1024" version="1.1" xmlns="http://www.w3.org/2000/svg" p-id="5260" xmlns:xlink="http://www.w3.org/1999/xlink" width="200" height="200"><defs><style type="text/css"></style></defs><path d="M229.860666 221.738174l26.113751 0 0-38.21844 9.148357 0c10.640338-0.01535 18.765389-2.65241 24.375154-7.896854 5.609765-5.244444 8.428973-13.003152 8.475022-23.278169 0.045025-8.978489-2.286066-16.318664-6.982018-22.044062-4.694929-5.717212-12.013615-8.66638-21.936615-8.856715l-39.194674 0L229.859643 221.738174 229.860666 221.738174zM306.358945 221.738174l37.928844 0c9.907651-0.138146 17.118889-2.51631 21.645996-7.16519 4.54348-4.634554 7.394411-10.739599 8.583492-18.301831 1.172709-7.561209 1.676176-15.785521 1.509377-24.680099 0.166799-8.894577-0.335644-17.118889-1.509377-24.681122-1.189082-7.568373-4.03899-13.666254-8.583492-18.307971-4.52813-4.64274-11.738345-7.028067-21.645996-7.158027l-37.928844 0L306.358945 221.738174 306.358945 221.738174zM387.169435 221.738174l26.114774 0L413.284209 180.432419l31.175023 0 0-20.4958-31.175023 0 0-17.157775 33.29429 0 0-21.334911-59.409065 0L387.169435 221.738174 387.169435 221.738174zM229.860666 430.343235l0 486.879879 564.275597 0L794.136264 430.343235 229.860666 430.343235 229.860666 430.343235zM592.90924 62.524009l0 245.51981 245.481947 0 0 653.432173L185.606767 961.475991 185.606767 62.524009 592.90924 62.524009 592.90924 62.524009zM255.975441 140.255371l4.925173 0c3.307326-0.01535 5.822612 0.99056 7.53051 3.003404 1.723248 2.01182 2.592035 5.083785 2.592035 9.222035 0 4.199649-0.868787 7.29515-2.592035 9.284457-1.707898 1.982144-4.223185 2.965541-7.53051 2.950192l-4.925173 0L255.975441 140.255371 255.975441 140.255371zM332.488045 140.255371l5.198395 0c3.322675-0.121773 5.807263 0.579191 7.453762 2.088568 1.63115 1.524726 2.713808 4.542456 3.232624 9.070586 0.518816 4.527107 0.74599 11.250228 0.700965 20.175505 0.045025 8.925277-0.182149 15.648398-0.700965 20.175505-0.517793 4.527107-1.600451 7.54586-3.232624 9.0624-1.6465 1.51654-4.131087 2.218528-7.453762 2.095731l-5.198395 0L332.488045 140.255371 332.488045 140.255371zM538.57782 503.821737l200.647833 0 0 20.762883L538.57782 524.58462 538.57782 503.821737 538.57782 503.821737zM284.7723 695.306886l200.648856 0 0 20.763906L284.7723 716.070792 284.7723 695.306886 284.7723 695.306886zM284.7723 631.478162l200.648856 0 0 20.763906L284.7723 652.242068 284.7723 631.478162 284.7723 631.478162zM284.7723 759.143797l200.648856 0 0 20.75572L284.7723 779.899516 284.7723 759.143797 284.7723 759.143797zM284.7723 822.964334l200.648856 0.008186 0 20.753673L284.7723 843.726194 284.7723 822.964334 284.7723 822.964334zM739.226676 695.306886l0 148.435681L538.57782 843.742567 538.57782 695.306886 739.226676 695.306886 739.226676 695.306886zM284.7723 567.649438l200.648856 0 0 20.763906L284.7723 588.413344 284.7723 567.649438 284.7723 567.649438zM284.7723 503.821737l200.648856 0 0 20.762883L284.7723 524.58462 284.7723 503.821737 284.7723 503.821737zM538.57782 631.478162l200.647833 0 0 20.763906L538.57782 652.242068 538.57782 631.478162 538.57782 631.478162zM538.57782 567.649438l200.647833 0 0 20.763906L538.57782 588.413344 538.57782 567.649438 538.57782 567.649438zM621.324406 62.524009l217.066781 217.066781L621.324406 279.590789 621.324406 62.524009 621.324406 62.524009z" p-id="5261"></path></svg>