<?xml version="1.0" standalone="no"?><!DOCTYPE svg PUBLIC "-//W3C//DTD SVG 1.1//EN" "http://www.w3.org/Graphics/SVG/1.1/DTD/svg11.dtd"><svg t="1577215780611" class="icon" viewBox="0 0 1024 1024" version="1.1" xmlns="http://www.w3.org/2000/svg" p-id="5500" xmlns:xlink="http://www.w3.org/1999/xlink" width="200" height="200"><defs><style type="text/css"></style></defs><path d="M626.005009 787.758508 580.402391 787.758508 580.402391 742.15589l45.602617 0L626.005009 787.758508l45.601594 0 0 45.601594-45.601594 0L626.005009 787.758508 626.005009 787.758508zM626.005009 559.747467l0 45.601594L580.402391 605.349061l0-45.601594L626.005009 559.747467l0-45.601594 45.601594 0 0 45.601594L626.005009 559.747467 626.005009 559.747467zM397.993968 559.747467l45.601594 0 0 45.601594-45.601594 0L397.993968 559.747467l-45.602617 0 0-45.601594 45.602617 0L397.993968 559.747467 397.993968 559.747467zM443.596586 742.15589l0 45.601594-45.601594 0 0 45.601594-45.602617 0 0-45.601594 45.602617 0L397.994991 742.15589 443.596586 742.15589 443.596586 742.15589zM229.912855 221.800595l26.106588 0 0-38.210253 9.146311 0c10.645454-0.016373 18.776645-2.65241 24.385387-7.895831 5.601578-5.243421 8.42795-13.000082 8.473999-23.273053 0.037862-8.976442-2.285043-16.315594-6.979972-22.038946-4.702092-5.715165-12.009522-8.67252-21.946848-8.854669l-39.184441 0L229.913878 221.800595 229.912855 221.800595zM306.409087 221.800595l24.416086 0 0.290619-61.940724 17.428951 61.940724 28.638247 0 0-100.272751L352.757694 121.527844l-0.274246 61.788252-16.872273-61.788252-29.203112 0L306.408063 221.800595 306.409087 221.800595zM423.20414 184.993295l9.274224 0c-0.083911 8.565073-0.893346 14.281261-2.425236 17.139356-1.530866 2.857071-3.672646 4.166903-6.430456 3.954055-2.628874 0.075725-4.587482-0.8913-5.861498-2.895957-1.27197-2.01182-2.103918-5.531993-2.484587-10.547217-0.38067-5.02955-0.548492-12.017708-0.517793-20.979824-0.046049-8.962116 0.137123-15.950274 0.540306-20.979824 0.404206-5.0142 1.272993-8.535397 2.628874-10.547217s3.436262-2.971681 6.249331-2.895957c1.547239 0 2.819209 0.381693 3.815909 1.128707 0.998747 0.731664 1.74576 1.813299 2.233877 3.230578 0.488117 1.334391 0.845251 2.979868 1.067308 4.938476 0.228197 1.950422 0.342808 4.191462 0.334621 6.721075l25.270547 0c-0.167822-12.033058-3.139503-20.690228-8.91709-25.964348-5.777587-5.273097-13.381775-7.856945-22.815635-7.735172-10.18906 0.01535-18.000979 2.02717-23.418362 6.043646-5.426593 4.00829-9.130961 9.883091-11.119245 17.626449-1.99647 7.742335-2.933819 17.223267-2.819209 28.432563-0.138146 11.087523 0.396019 20.491707 1.600451 28.249391 1.203408 7.742335 3.870144 13.648858 8.03193 17.711384 4.145413 4.069689 10.576893 6.111185 19.280112 6.141884 4.564969 0.083911 8.840342-0.648776 12.833283-2.194992 3.992941-1.539053 6.934946-4.419659 9.099239-8.612145l0.563842 8.841366 17.680684 0 0-54.487985-33.698496 0L423.20107 184.993295 423.20414 184.993295zM592.901053 62.6202 592.901053 308.089867l245.423619 0 0 653.290957L185.674305 961.380824 185.674305 62.6202 592.901053 62.6202 592.901053 62.6202zM229.912855 430.363701 229.912855 917.14125l564.17429 0L794.087145 430.363701 229.912855 430.363701 229.912855 430.363701zM256.019443 140.335189l4.924149 0c3.314489-0.01535 5.828752 0.99056 7.543813 3.00238 1.715061 2.012843 2.575662 5.084808 2.583848 9.222035-0.008186 4.199649-0.868787 7.293103-2.583848 9.274224-1.715061 1.988284-4.229325 2.970658-7.543813 2.957355l-4.924149 0L256.019443 140.335189 256.019443 140.335189zM489.199203 559.747467 443.596586 559.747467l0 45.601594 45.602617 0L489.199203 559.747467 489.199203 559.747467zM534.800797 650.951679 534.800797 605.350085l-45.601594 0 0 45.601594L534.800797 650.951679 534.800797 650.951679zM580.402391 696.555319l0-45.602617-45.601594 0 0 45.602617L580.402391 696.555319 580.402391 696.555319zM580.402391 605.350085l0-45.601594-45.601594 0 0 45.601594L580.402391 605.350085 580.402391 605.350085zM626.005009 605.350085 580.402391 605.350085l0 45.601594 45.602617 0L626.005009 605.350085 626.005009 605.350085zM397.993968 650.951679l45.601594 0L443.595562 605.350085l-45.601594 0L397.993968 650.951679 397.993968 650.951679zM443.596586 696.555319l45.602617 0 0-45.602617L443.596586 650.952702 443.596586 696.555319 443.596586 696.555319zM626.005009 742.15589l0-45.601594L580.402391 696.554296l0 45.601594L626.005009 742.15589 626.005009 742.15589zM489.199203 742.15589l45.601594 0 0-45.601594-45.601594 0L489.199203 742.15589 489.199203 742.15589zM397.993968 742.15589l45.601594 0 0-45.601594-45.601594 0L397.993968 742.15589 397.993968 742.15589zM534.800797 787.758508l45.601594 0L580.402391 742.15589l-45.601594 0L534.800797 787.758508 534.800797 787.758508zM489.199203 787.758508l0 45.601594L443.596586 833.360102l0-45.601594-45.601594 0 0 45.601594-45.602617 0 0-45.601594 45.602617 0L397.994991 742.15589l-45.602617 0 0-45.601594 45.602617 0 0-45.602617-45.602617 0L352.392374 605.350085l45.602617 0 0-45.601594-45.602617 0 0-45.601594 45.602617 0 0 45.601594 45.601594 0 0-45.601594 45.602617 0 0 45.601594 45.601594 0 0-45.601594 45.601594 0 0 45.601594 45.602617 0 0-45.601594 45.601594 0 0 45.601594-45.601594 0 0 45.601594 45.601594 0 0 45.601594-45.601594 0 0 45.602617 45.601594 0 0 45.601594-45.601594 0 0 45.601594 45.601594 0 0 45.601594-45.601594 0 0-45.601594L580.402391 787.757484l0 45.601594-45.601594 0 0-45.601594L489.199203 787.757484 489.199203 787.758508zM443.596586 787.758508l45.602617 0L489.199203 742.15589 443.596586 742.15589 443.596586 787.758508 443.596586 787.758508zM621.29473 62.6202 838.324672 279.641955 621.29473 279.641955 621.29473 62.6202 621.29473 62.6202z" p-id="5501"></path></svg>