<?xml version="1.0" standalone="no"?><!DOCTYPE svg PUBLIC "-//W3C//DTD SVG 1.1//EN" "http://www.w3.org/Graphics/SVG/1.1/DTD/svg11.dtd"><svg t="1577215757885" class="icon" viewBox="0 0 1024 1024" version="1.1" xmlns="http://www.w3.org/2000/svg" p-id="5380" xmlns:xlink="http://www.w3.org/1999/xlink" width="200" height="200"><defs><style type="text/css"></style></defs><path d="M254.729054 172.376952l-23.64042 50.632167 29.095665 0 10.199293-30.066783 9.934257 30.066783 29.088502 0-23.357987-50.632167 21.681812-49.222051-29.088502 0-8.53028 28.944216-8.256034-28.944216-29.080316 0L254.729054 172.376952 254.729054 172.376952zM313.792241 223.010143l58.025555 0 0-21.248953L339.792405 201.76119l0-78.605266-26.000164 0L313.792241 223.010143 313.792241 223.010143zM441.680956 151.948691c0.075725-10.639315-2.482541-18.441001-7.649214-23.404036-5.176906-4.955872-13.396101-7.40669-24.6494-7.346315-10.973936 0.037862-19.169595 2.716878-24.602328 8.02886-5.41943 5.328355-8.135284 13.037944-8.120958 23.146163 0.211824 8.652054 2.336208 15.072277 6.374174 19.246343 4.045129 4.173043 8.727779 7.269567 14.039761 9.295714 5.327332 2.026146 10.002818 4.151553 14.047947 6.368034 4.036943 2.216481 6.169513 5.692652 6.381337 10.426467-0.01535 2.785439-0.75827 5.077645-2.208295 6.875594-1.447978 1.790786-3.514033 2.716878-6.200212 2.778276-2.557242 0.045025-4.614088-0.819668-6.161327-2.611477-1.540076-1.783623-2.337231-4.780887-2.375094-8.999978l0-2.382257-25.157983 0 0 3.497661c0.046049 10.222829 2.945075 17.493419 8.697079 21.810748 5.753027 4.318352 14.040784 6.412037 24.862247 6.290263 11.512195 0.046049 20.275789-2.428306 26.294876-7.40669 6.018064-4.993734 9.04705-12.771885 9.083889-23.359011-0.220011-8.924253-2.429329-15.564487-6.647397-19.905352-4.203742-4.339842-9.075703-7.565303-14.616906-9.683547-5.53097-2.110057-10.403954-4.28663-14.614859-6.53381-4.204765-2.238994-6.421246-5.730515-6.641257-10.458189-0.007163-2.336208 0.645706-4.363378 1.966795-6.092765 1.311879-1.730411 3.368724-2.642177 6.161327-2.725064 2.50403 0.075725 4.370541 1.13894 5.600555 3.179412 1.215688 2.041496 1.822508 4.576225 1.822508 7.597025l0 2.366907L441.680956 151.947667 441.680956 151.948691zM592.563362 64.493873l0 244.446361 244.400313 0L836.963675 959.506127 187.035302 959.506127 187.035302 64.493873 592.563362 64.493873 592.563362 64.493873zM231.088634 430.704462 231.088634 915.452795l561.821709 0L792.910343 430.704462 231.088634 430.704462 231.088634 430.704462zM673.081187 529.890462l0 286.35996-55.656601 0L617.424586 529.890462 673.081187 529.890462 673.081187 529.890462zM584.244906 591.671551l0 224.594221-55.658647 0L528.586259 591.671551 584.244906 591.671551 584.244906 591.671551zM495.409648 634.390491l0 181.874257-55.657624 0L439.752024 634.390491 495.409648 634.390491 495.409648 634.390491zM406.575414 687.504176l0 128.760572-55.658647 0L350.916766 687.504176 406.575414 687.504176 406.575414 687.504176zM620.840382 64.493873l216.123292 216.117153L620.840382 280.611026 620.840382 64.493873 620.840382 64.493873z" p-id="5381"></path></svg>