<?xml version="1.0" encoding="utf-8"?>
<!-- Generator: Adobe Illustrator 16.0.0, SVG Export Plug-In . SVG Version: 6.00 Build 0)  -->
<!DOCTYPE svg PUBLIC "-//W3C//DTD SVG 1.1//EN" "http://www.w3.org/Graphics/SVG/1.1/DTD/svg11.dtd">
<svg version="1.1" id="图层_1" xmlns="http://www.w3.org/2000/svg" xmlns:xlink="http://www.w3.org/1999/xlink" x="0px" y="0px"
	 width="38px" height="38px" viewBox="0 7 38 38" enable-background="new 0 7 38 38" xml:space="preserve">
<g id="页面-1">
	<g id="index" transform="translate(-479.000000, -374.000000)">
		<g id="_x30_2" transform="translate(220.000000, 190.000000)">
			<g id="企业情况">
				<g id="品牌布局" transform="translate(0.000000, 69.000000)">
					<g id="编组-2" transform="translate(57.000000, 96.000000)">
						<g id="icon-优秀" transform="translate(202.000000, 19.000000)">
							
								<linearGradient id="形状_1_" gradientUnits="userSpaceOnUse" x1="-255.0903" y1="-367.3735" x2="-255.9042" y2="-366.3434" gradientTransform="matrix(32 0 0 36 8196.1875 13233.5625)">
								<stop  offset="0" style="stop-color:#9CFFF6"/>
								<stop  offset="1" style="stop-color:#389AFF"/>
							</linearGradient>
							<path id="形状" fill="url(#形状_1_)" d="M34.127,18.891c-0.312-0.419-0.649-1.32-0.698-1.845l-0.093-1.03
								c-0.116-1.272-1.043-2.622-2.192-3.18l-0.928-0.453c-0.472-0.229-1.188-0.867-1.476-1.306l-0.56-0.863
								c-0.692-1.073-2.14-1.836-3.416-1.797L23.737,8.45c-0.524,0.014-1.456-0.214-1.912-0.472l-0.898-0.505
								c-1.111-0.629-2.747-0.629-3.856,0l-0.898,0.505c-0.456,0.257-1.388,0.486-1.912,0.472l-1.03-0.033
								c-1.276-0.039-2.723,0.72-3.417,1.797l-0.557,0.868c-0.282,0.439-1.005,1.078-1.475,1.306L6.854,12.84
								c-1.146,0.558-2.077,1.907-2.194,3.18l-0.092,1.03c-0.048,0.52-0.388,1.421-0.699,1.845l-0.611,0.83
								c-0.757,1.03-0.956,2.655-0.466,3.833l0.393,0.954c0.199,0.481,0.316,1.44,0.238,1.958L3.267,27.49
								c-0.194,1.264,0.388,2.793,1.369,3.613l0.791,0.658c0.403,0.334,0.947,1.129,1.122,1.621l0.334,0.977
								c0.059,0.178,0.136,0.35,0.229,0.516l-3.674,5.299h5.319l2.557,3.896l3.227-4.537c0.801,0.301,1.708,0.371,2.48,0.158
								l0.995-0.275c0.505-0.145,1.465-0.145,1.97,0l0.995,0.275c0.731,0.205,1.592,0.146,2.361-0.115l3.204,4.494l2.558-3.896
								h5.317L30.822,35c0.121-0.205,0.224-0.42,0.3-0.641l0.336-0.977c0.169-0.496,0.719-1.287,1.12-1.621l0.791-0.658
								c0.979-0.814,1.563-2.35,1.369-3.613l-0.155-1.021c-0.078-0.515,0.038-1.473,0.237-1.959l0.394-0.954
								c0.48-1.182,0.281-2.808-0.476-3.837L34.127,18.891z M18.995,37.029c-7.42,0-13.438-6.021-13.438-13.449
								s6.018-13.448,13.438-13.448s13.438,6.021,13.438,13.448S26.416,37.029,18.995,37.029L18.995,37.029z"/>
						</g>
					</g>
				</g>
			</g>
		</g>
	</g>
</g>
<g id="页面-1_1_">
	<g id="index_1_" transform="translate(-483.000000, -378.000000)">
		<g id="_x30_2_1_" transform="translate(220.000000, 190.000000)">
			<g id="企业情况_1_">
				<g id="品牌布局_1_" transform="translate(0.000000, 69.000000)">
					<g id="编组-2_1_" transform="translate(57.000000, 96.000000)">
						<g id="icon-优秀_1_" transform="translate(202.000000, 19.000000)">
							
								<linearGradient id="形状结合_1_" gradientUnits="userSpaceOnUse" x1="-240.8672" y1="-355.9482" x2="-241.8975" y2="-354.918" gradientTransform="matrix(23.8298 0 0 23.8298 5775.0776 8497.4883)">
								<stop  offset="0" style="stop-color:#9CFFF6"/>
								<stop  offset="1" style="stop-color:#389AFF"/>
							</linearGradient>
							<path id="形状结合" fill="url(#形状结合_1_)" d="M22.999,15.326c6.775,0,12.268,5.493,12.268,12.269
								c0,6.777-5.492,12.267-12.268,12.267c-6.776,0-12.269-5.49-12.269-12.267C10.73,20.818,16.224,15.326,22.999,15.326z
								 M22.999,19.686l-2.27,4.599l-5.075,0.737l3.672,3.58l-0.867,5.055l4.539-2.387l4.539,2.387l-0.865-5.056l3.673-3.58
								l-5.076-0.737L22.999,19.686z"/>
						</g>
					</g>
				</g>
			</g>
		</g>
	</g>
</g>
</svg>
