<?xml version="1.0" encoding="utf-8"?>
<!-- Generator: Adobe Illustrator 16.0.0, SVG Export Plug-In . SVG Version: 6.00 Build 0)  -->
<!DOCTYPE svg PUBLIC "-//W3C//DTD SVG 1.1//EN" "http://www.w3.org/Graphics/SVG/1.1/DTD/svg11.dtd">
<svg version="1.1" id="图层_1" xmlns="http://www.w3.org/2000/svg" xmlns:xlink="http://www.w3.org/1999/xlink" x="0px" y="0px"
	 width="38px" height="38px" viewBox="0 7 38 38" enable-background="new 0 7 38 38" xml:space="preserve">
<g id="编组-4" transform="translate(0.974440, -0.000000)">
	
		<linearGradient id="形状结合_2_" gradientUnits="userSpaceOnUse" x1="-257.0369" y1="-365.0913" x2="-258.0451" y2="-364.0222" gradientTransform="matrix(32.0482 0 0 32.6332 8271.7998 11922.5801)">
		<stop  offset="0" style="stop-color:#F1DE86"/>
		<stop  offset="1" style="stop-color:#F3A84F"/>
	</linearGradient>
	<path id="形状结合" fill="url(#形状结合_2_)" d="M19.988,8.523l0.209,0.112l0.934,0.542
		c0.422,0.245,1.232,0.466,1.791,0.501l0.195,0.004l1.068-0.036c1.258-0.039,2.672,0.693,3.432,1.748l0.119,0.178l0.58,0.925
		c0.27,0.423,0.898,1.02,1.379,1.313l0.154,0.086l0.963,0.486c1.133,0.566,2.057,1.894,2.254,3.192l0.025,0.216l0.096,1.104
		c0.045,0.506,0.336,1.338,0.629,1.828l0.098,0.149l0.637,0.888c0.664,0.932,0.916,2.318,0.676,3.49l0.113,0.001
		c0.004,1.729-0.275,3.837-0.789,4.559l0,0l-0.637,0.89l-0.098,0.148c-0.293,0.49-0.584,1.322-0.629,1.828l0,0l-0.096,1.104
		l-0.025,0.216c-0.197,1.297-1.121,2.625-2.254,3.191l0,0l-0.963,0.486l-0.154,0.086c-0.479,0.293-1.109,0.891-1.379,1.313l0,0
		l-0.58,0.926l-0.119,0.178c-0.76,1.057-2.174,1.787-3.432,1.748l0,0l-1.068-0.035l-0.195,0.004
		c-0.559,0.035-1.371,0.256-1.791,0.502l0,0l-0.936,0.541l-0.209,0.111c-1.143,0.561-2.712,0.521-3.799-0.111l0,0l-0.933-0.541
		l-0.175-0.092c-0.509-0.236-1.328-0.428-1.812-0.414l0,0l-1.069,0.035h-0.21c-1.272-0.045-2.656-0.834-3.34-1.926l0,0l-0.58-0.932
		l-0.09-0.133c-0.337-0.459-0.998-1.043-1.443-1.266l0,0l-0.963-0.486L5.385,37.08c-1.103-0.648-1.978-2.016-2.093-3.307l0,0
		l-0.095-1.102l-0.024-0.178c-0.097-0.566-0.412-1.391-0.703-1.8l0,0l-0.635-0.89L1.757,29.68c-0.464-0.816-0.718-2.793-0.711-4.429
		l0,0h0.117l-0.041-0.235c-0.155-1.035,0.058-2.2,0.585-3.056l0.127-0.192l0.635-0.889c0.291-0.41,0.606-1.233,0.703-1.799
		l0.025-0.18l0.096-1.104c0.115-1.292,0.99-2.658,2.093-3.307l0.187-0.101l0.963-0.486c0.445-0.222,1.106-0.809,1.443-1.266
		l0.09-0.133l0.58-0.93c0.684-1.094,2.068-1.88,3.34-1.925l0.21-0.001l1.069,0.036c0.484,0.014,1.303-0.179,1.812-0.416l0.175-0.09
		l0.933-0.542C17.276,8,18.844,7.962,19.988,8.523z M18.19,11.486c-7.5,0-13.621,6.105-13.95,13.765
		c-0.012,0.139-0.014,0.28-0.014,0.42c0,7.961,6.254,14.412,13.964,14.412c7.71,0,13.964-6.451,13.964-14.412
		c0-0.142-0.002-0.282-0.006-0.421l0,0h-0.01C31.813,17.591,25.69,11.486,18.19,11.486z"/>
	
		<linearGradient id="形状结合_3_" gradientUnits="userSpaceOnUse" x1="-250.9979" y1="-356.0596" x2="-252.0682" y2="-354.9893" gradientTransform="matrix(23.8298 0 0 23.8298 6012.1899 8498.0576)">
		<stop  offset="0" style="stop-color:#F6DD71"/>
		<stop  offset="1" style="stop-color:#F39F3D"/>
	</linearGradient>
	<path id="形状结合_1_" fill="url(#形状结合_3_)" d="M18.195,13.229c7.04,0,12.749,5.708,12.749,12.749
		c0,7.042-5.709,12.748-12.749,12.748c-7.042,0-12.75-5.706-12.75-12.748C5.445,18.938,11.153,13.229,18.195,13.229z M18.195,17.759
		l-2.358,4.779l-5.274,0.766l3.816,3.72l-0.901,5.253l4.717-2.48l4.716,2.48l-0.898-5.253l3.814-3.72l-5.273-0.766L18.195,17.759z"
		/>
</g>
</svg>
