<?xml version="1.0" encoding="utf-8"?>
<!-- Generator: Adobe Illustrator 16.0.0, SVG Export Plug-In . SVG Version: 6.00 Build 0)  -->
<!DOCTYPE svg PUBLIC "-//W3C//DTD SVG 1.1//EN" "http://www.w3.org/Graphics/SVG/1.1/DTD/svg11.dtd">
<svg version="1.1" id="图层_1" xmlns="http://www.w3.org/2000/svg" xmlns:xlink="http://www.w3.org/1999/xlink" x="0px" y="0px"
	 width="38px" height="52px" viewBox="0 0 38 52" enable-background="new 0 0 38 52" xml:space="preserve">
<g id="页面-1">
	<g id="index" transform="translate(-479.000000, -374.000000)">
		<g id="_x30_2" transform="translate(220.000000, 190.000000)">
			<g id="企业情况">
				<g id="品牌布局" transform="translate(0.000000, 69.000000)">
					<g id="编组-2" transform="translate(57.000000, 96.000000)">
						<g id="icon-优秀" transform="translate(202.000000, 19.000000)">
							
								<linearGradient id="形状_1_" gradientUnits="userSpaceOnUse" x1="-276.2793" y1="412.0254" x2="-277.0932" y2="410.9953" gradientTransform="matrix(32 0 0 -36 8874.3438 14834.0313)">
								<stop  offset="0" style="stop-color:#9CFFF6"/>
								<stop  offset="1" style="stop-color:#389AFF"/>
							</linearGradient>
							<path id="形状" fill="url(#形状_1_)" d="M34.257,11.89c-0.311-0.419-0.649-1.32-0.699-1.845l-0.092-1.03
								c-0.116-1.272-1.043-2.622-2.193-3.18l-0.928-0.453c-0.471-0.229-1.188-0.867-1.475-1.306l-0.559-0.863
								c-0.693-1.073-2.14-1.836-3.417-1.797l-1.027,0.033c-0.524,0.014-1.456-0.214-1.912-0.472l-0.898-0.505
								c-1.111-0.629-2.747-0.629-3.857,0l-0.898,0.505c-0.456,0.257-1.388,0.486-1.912,0.472L13.36,1.416
								c-1.276-0.039-2.723,0.72-3.417,1.797L9.386,4.081C9.104,4.52,8.381,5.159,7.911,5.387L6.984,5.84
								C5.838,6.398,4.907,7.747,4.79,9.02l-0.092,1.03c-0.048,0.52-0.388,1.421-0.699,1.845l-0.611,0.83
								c-0.757,1.03-0.956,2.655-0.466,3.833l0.393,0.954c0.199,0.481,0.316,1.44,0.238,1.959L3.397,20.49
								c-0.194,1.263,0.388,2.793,1.369,3.613l0.791,0.659c0.403,0.333,0.947,1.129,1.122,1.62l0.334,0.978
								c0.059,0.177,0.136,0.348,0.229,0.515l-3.674,5.299h5.319l2.557,3.896l3.227-4.537c0.801,0.301,1.708,0.372,2.48,0.158
								l0.995-0.276c0.505-0.144,1.466-0.144,1.97,0l0.995,0.276c0.732,0.205,1.592,0.147,2.362-0.115l3.204,4.494l2.558-3.896
								h5.317l-3.6-5.175c0.121-0.205,0.224-0.42,0.3-0.639l0.336-0.978c0.169-0.495,0.718-1.287,1.12-1.62l0.791-0.659
								c0.98-0.814,1.563-2.35,1.369-3.613l-0.155-1.021c-0.078-0.515,0.038-1.473,0.237-1.959l0.394-0.954
								c0.48-1.182,0.281-2.808-0.476-3.837L34.257,11.89z M19.125,30.029c-7.42,0-13.438-6.021-13.438-13.449
								c0-7.427,6.018-13.448,13.438-13.448c7.42,0,13.438,6.021,13.438,13.448C32.563,24.008,26.546,30.029,19.125,30.029
								L19.125,30.029z"/>
						</g>
					</g>
				</g>
			</g>
		</g>
	</g>
</g>
<g id="页面-1_1_">
	<g id="index_1_" transform="translate(-483.000000, -378.000000)">
		<g id="_x30_2_1_" transform="translate(220.000000, 190.000000)">
			<g id="企业情况_1_">
				<g id="品牌布局_1_" transform="translate(0.000000, 69.000000)">
					<g id="编组-2_1_" transform="translate(57.000000, 96.000000)">
						<g id="icon-优秀_1_" transform="translate(202.000000, 19.000000)">
							
								<linearGradient id="形状结合_1_" gradientUnits="userSpaceOnUse" x1="-269.0342" y1="410.2949" x2="-270.0645" y2="409.2646" gradientTransform="matrix(23.8298 0 0 -23.8298 6446.4287 9785.5674)">
								<stop  offset="0" style="stop-color:#9CFFF6"/>
								<stop  offset="1" style="stop-color:#389AFF"/>
							</linearGradient>
							<path id="形状结合" fill="url(#形状结合_1_)" d="M23.129,8.325c6.775,0,12.268,5.493,12.268,12.269
								s-5.493,12.268-12.268,12.268c-6.776,0-12.269-5.492-12.269-12.268S16.354,8.325,23.129,8.325z M23.129,12.685l-2.27,4.599
								l-5.075,0.737l3.672,3.58l-0.867,5.055l4.539-2.387l4.539,2.387L26.802,21.6l3.672-3.58l-5.075-0.737L23.129,12.685z"/>
						</g>
					</g>
				</g>
			</g>
		</g>
	</g>
</g>
<text transform="matrix(1 0 0 1 9.0181 49.4248)" fill="#B5C4D0" font-family="'AdobeSongStd-Light-GBpc-EUC-H'" font-size="10.2968">优秀</text>
</svg>
