<?xml version="1.0" encoding="utf-8"?>
<!-- Generator: Adobe Illustrator 16.0.0, SVG Export Plug-In . SVG Version: 6.00 Build 0)  -->
<!DOCTYPE svg PUBLIC "-//W3C//DTD SVG 1.1//EN" "http://www.w3.org/Graphics/SVG/1.1/DTD/svg11.dtd">
<svg version="1.1" id="图层_1" xmlns="http://www.w3.org/2000/svg" xmlns:xlink="http://www.w3.org/1999/xlink" x="0px" y="0px"
	 width="38px" height="52px" viewBox="0 0 38 52" enable-background="new 0 0 38 52" xml:space="preserve">
<g id="编组-4" transform="translate(0.974440, -0.000000)">
	
		<linearGradient id="形状结合_2_" gradientUnits="userSpaceOnUse" x1="-277.244" y1="410.9287" x2="-278.2522" y2="409.8596" gradientTransform="matrix(32.0482 0 0 -32.6332 8919.3389 13410.2529)">
		<stop  offset="0" style="stop-color:#F1DE86"/>
		<stop  offset="1" style="stop-color:#F3A84F"/>
	</linearGradient>
	<path id="形状结合" fill="url(#形状结合_2_)" d="M19.941,0.394l0.209,0.112l0.934,0.542
		c0.421,0.245,1.233,0.466,1.791,0.501l0.196,0.004l1.068-0.036c1.257-0.039,2.672,0.693,3.431,1.748l0.119,0.178l0.581,0.925
		c0.269,0.423,0.898,1.02,1.379,1.313l0.153,0.086l0.964,0.486c1.133,0.566,2.056,1.894,2.253,3.192l0.026,0.216l0.096,1.104
		c0.045,0.506,0.335,1.338,0.629,1.828l0.097,0.149l0.636,0.888c0.665,0.932,0.916,2.318,0.677,3.49l0.112,0.001
		c0.005,1.729-0.274,3.838-0.789,4.559l0,0l-0.636,0.89l-0.097,0.149c-0.294,0.489-0.584,1.322-0.629,1.828l0,0l-0.096,1.104
		l-0.026,0.216c-0.197,1.297-1.12,2.625-2.253,3.192l0,0l-0.964,0.485l-0.153,0.087c-0.48,0.293-1.11,0.89-1.379,1.313l0,0
		l-0.581,0.924l-0.119,0.179c-0.759,1.056-2.174,1.786-3.431,1.748l0,0L23.07,33.76l-0.196,0.004
		c-0.558,0.035-1.37,0.256-1.791,0.501l0,0l-0.934,0.542l-0.209,0.111c-1.144,0.56-2.713,0.522-3.8-0.111l0,0l-0.933-0.542
		l-0.175-0.091c-0.509-0.236-1.328-0.429-1.812-0.414l0,0l-1.069,0.035l-0.21-0.001c-1.272-0.044-2.656-0.833-3.34-1.926l0,0
		l-0.58-0.93l-0.09-0.134c-0.337-0.458-0.998-1.042-1.443-1.266l0,0l-0.963-0.485l-0.187-0.103
		c-1.103-0.648-1.978-2.014-2.093-3.306l0,0L3.15,24.542l-0.024-0.178c-0.097-0.566-0.412-1.39-0.703-1.799l0,0l-0.635-0.889
		L1.71,21.55c-0.464-0.816-0.718-2.793-0.711-4.429l0,0l0.117,0l-0.041-0.235c-0.155-1.035,0.058-2.2,0.585-3.056l0.127-0.192
		l0.635-0.889c0.291-0.41,0.606-1.233,0.703-1.799L3.15,10.77l0.096-1.104c0.115-1.292,0.99-2.658,2.093-3.307l0.187-0.101
		l0.963-0.486c0.445-0.222,1.106-0.809,1.443-1.266l0.09-0.133l0.58-0.93c0.684-1.094,2.068-1.88,3.34-1.925l0.21-0.001l1.069,0.036
		c0.484,0.014,1.303-0.179,1.812-0.416l0.175-0.09l0.933-0.542C17.228-0.129,18.797-0.167,19.941,0.394z M18.143,3.357
		c-7.5,0-13.621,6.105-13.95,13.765c-0.012,0.139-0.014,0.28-0.014,0.42c0,7.961,6.254,14.413,13.964,14.413
		c7.711,0,13.965-6.452,13.965-14.413c0-0.141-0.002-0.281-0.006-0.421l0,0l-0.01,0C31.765,9.462,25.643,3.357,18.143,3.357z"/>
	
		<linearGradient id="形状结合_3_" gradientUnits="userSpaceOnUse" x1="-274.1981" y1="406.4541" x2="-275.2684" y2="405.3838" gradientTransform="matrix(23.8298 0 0 -23.8298 6564.9941 9690.8105)">
		<stop  offset="0" style="stop-color:#F6DD71"/>
		<stop  offset="1" style="stop-color:#F39F3D"/>
	</linearGradient>
	<path id="形状结合_1_" fill="url(#形状结合_3_)" d="M18.147,5.1c7.041,0,12.749,5.708,12.749,12.749
		c0,7.042-5.708,12.749-12.749,12.749c-7.042,0-12.75-5.707-12.75-12.749C5.397,10.808,11.105,5.1,18.147,5.1z M18.147,9.63
		l-2.358,4.779l-5.274,0.766l3.816,3.72l-0.901,5.253l4.717-2.48l4.717,2.48l-0.9-5.253l3.815-3.72l-5.273-0.766L18.147,9.63z"/>
</g>
<text transform="matrix(1 0 0 1 8.5869 49.2207)" fill="#B2C1CC" font-family="'AdobeSongStd-Light-GBpc-EUC-H'" font-size="10.7002">良好</text>
</svg>
