<?xml version="1.0" encoding="utf-8"?>
<!-- Generator: Adobe Illustrator 16.0.0, SVG Export Plug-In . SVG Version: 6.00 Build 0)  -->
<!DOCTYPE svg PUBLIC "-//W3C//DTD SVG 1.1//EN" "http://www.w3.org/Graphics/SVG/1.1/DTD/svg11.dtd">
<svg version="1.1" id="图层_1" xmlns="http://www.w3.org/2000/svg" xmlns:xlink="http://www.w3.org/1999/xlink" x="0px" y="0px"
	 width="34px" height="34px" viewBox="17 17 34 34" enable-background="new 17 17 34 34" xml:space="preserve">
<title>classify04</title>
<desc>Created with Sketch.</desc>
<linearGradient id="椭圆形_2_" gradientUnits="userSpaceOnUse" x1="36.2402" y1="30.1338" x2="35.2402" y2="29.1338" gradientTransform="matrix(34 0 0 -34 -1181.1563 1041.5313)">
	<stop  offset="0" style="stop-color:#8ECAFF"/>
	<stop  offset="1" style="stop-color:#5298FA"/>
</linearGradient>
<circle id="椭圆形_1_" fill="url(#椭圆形_2_)" cx="34" cy="34" r="17"/>
<g id="工单" transform="translate(24.000000, 27.000000)">
	<rect id="矩形" fill-opacity="0" width="19" height="16"/>
	<path id="路径" fill="#FFFFFF" d="M12.976,3.115V2.18c0-0.26-0.051-0.309-0.354-0.309H4.38c-0.304,0-0.355,0.049-0.355,0.309
		v9.662c0,0.261,0.051,0.471,0.355,0.471h1.155V13H4c-0.553,0-1-0.391-1-0.873V1.872C3,1.39,3.447,1,4,1h9c0.553,0,1,0.39,1,0.872
		v1.243H12.976z"/>
	<path id="形状" fill="#FFFFFF" d="M15,15H6c-0.552,0-1-0.391-1-0.873V3.873C5,3.391,5.448,3,6,3h9c0.552,0,1,0.391,1,0.873
		v10.254C16,14.609,15.552,15,15,15z M14.961,4.418c0-0.389-0.186-0.543-0.652-0.543H6.701c-0.466,0-0.651,0.154-0.651,0.543v9.172
		c0,0.389,0.185,0.543,0.651,0.543h7.608c0.467,0,0.652-0.154,0.652-0.543V4.418L14.961,4.418z"/>
	<path id="形状_1_" fill="#FFFFFF" d="M8,7.715V7h6v0.715H8L8,7.715z M12.285,9.143H8V8.429h4.285V9.143L12.285,9.143z
		 M11.429,10.571H8V9.857h3.429V10.571z M13.143,12H8v-0.715h5.143V12L13.143,12z"/>
</g>
</svg>
